HIERARCHY
ROOT root
{
  OFFSET 0 95.9893 0
  CHANNELS 6 Xposition Yposition Zposition Zrotation Xrotation Yrotation
  JOINT torso_1
  {
    OFFSET 0 5.22546 -1.18466
    CHANNELS 6 Xposition Yposition Zposition Zrotation Xrotation Yrotation
    JOINT torso_2
    {
      OFFSET 0 5.77894 1.10239
      CHANNELS 6 Xposition Yposition Zposition Zrotation Xrotation Yrotation
      JOINT torso_3
      {
        OFFSET -1.0557e-17 6.16289 0.118334
        CHANNELS 6 Xposition Yposition Zposition Zrotation Xrotation Yrotation
        JOINT torso_4
        {
          OFFSET -1.13649e-17 6.69386 -0.456341
          CHANNELS 6 Xposition Yposition Zposition Zrotation Xrotation Yrotation
          JOINT torso_5
          {
            OFFSET -2.02997e-17 7.82529 -1.54945
            CHANNELS 6 Xposition Yposition Zposition Zrotation Xrotation Yrotation
            JOINT torso_6
            {
              OFFSET -2.60628e-17 9.77186 -0.940923
              CHANNELS 6 Xposition Yposition Zposition Zrotation Xrotation Yrotation
              JOINT torso_7
              {
                OFFSET -2.98794e-17 10.8563 1.62248
                CHANNELS 6 Xposition Yposition Zposition Zrotation Xrotation Yrotation
                JOINT neck_1
                {
                  OFFSET -1.32927e-17 4.92478 0.736013
                  CHANNELS 6 Xposition Yposition Zposition Zrotation Xrotation Yrotation
                  JOINT neck_2
                  {
                    OFFSET -1.86396e-17 4.96043 0.433981
                    CHANNELS 6 Xposition Yposition Zposition Zrotation Xrotation Yrotation
                    JOINT head
                    {
                      OFFSET -2.06766e-17 4.97002 0.787173
                      CHANNELS 6 Xposition Yposition Zposition Zrotation Xrotation Yrotation
                      End Site
                      {
                        OFFSET 0 0.1 0
                      }
                    }
                  }
                }
                JOINT l_shoulder
                {
                  OFFSET 1.26863 -7.82717 7.75148
                  CHANNELS 6 Xposition Yposition Zposition Zrotation Xrotation Yrotation
                  JOINT l_up_arm
                  {
                    OFFSET 13.3291 3.34342 -3.36319
                    CHANNELS 6 Xposition Yposition Zposition Zrotation Xrotation Yrotation
                    JOINT l_low_arm
                    {
                      OFFSET 30.0522 0.0615366 0.141
                      CHANNELS 6 Xposition Yposition Zposition Zrotation Xrotation Yrotation
                      JOINT l_hand
                      {
                        OFFSET 24.9344 0.0510561 0.116988
                        CHANNELS 6 Xposition Yposition Zposition Zrotation Xrotation Yrotation
                        End Site
                        {
                          OFFSET 0.1 0 0
                        }
                      }
                    }
                  }
                }
                JOINT r_shoulder
                {
                  OFFSET -1.26863 -7.82715 7.75138
                  CHANNELS 6 Xposition Yposition Zposition Zrotation Xrotation Yrotation
                  JOINT r_up_arm
                  {
                    OFFSET -13.3291 3.34342 -3.36319
                    CHANNELS 6 Xposition Yposition Zposition Zrotation Xrotation Yrotation
                    JOINT r_low_arm
                    {
                      OFFSET -30.0522 0.0615366 0.141
                      CHANNELS 6 Xposition Yposition Zposition Zrotation Xrotation Yrotation
                      JOINT r_hand
                      {
                        OFFSET -24.9344 0.0510559 0.116988
                        CHANNELS 6 Xposition Yposition Zposition Zrotation Xrotation Yrotation
                        End Site
                        {
                          OFFSET -0.1 0 0
                        }
                      }
                    }
                  }
                }
              }
            }
          }
        }
      }
    }
  }
  JOINT l_up_leg
  {
    OFFSET 9.50369 -4.32711 2.09145
    CHANNELS 6 Xposition Yposition Zposition Zrotation Xrotation Yrotation
    JOINT l_low_leg
    {
      OFFSET -0.876987 -39.8926 -0.674123
      CHANNELS 6 Xposition Yposition Zposition Zrotation Xrotation Yrotation
      JOINT l_foot
      {
        OFFSET -2.39345 -41.5694 -6.22357
        CHANNELS 6 Xposition Yposition Zposition Zrotation Xrotation Yrotation
        JOINT l_toes
        {
          OFFSET 0.801613 -10.1701 12.8571
          CHANNELS 6 Xposition Yposition Zposition Zrotation Xrotation Yrotation
          End Site
          {
            OFFSET 0 0 0.1
          }
        }
      }
    }
  }
  JOINT r_up_leg
  {
    OFFSET -9.50369 -4.32711 2.09145
    CHANNELS 6 Xposition Yposition Zposition Zrotation Xrotation Yrotation
    JOINT r_low_leg
    {
      OFFSET 0.876987 -39.8926 -0.674123
      CHANNELS 6 Xposition Yposition Zposition Zrotation Xrotation Yrotation
      JOINT r_foot
      {
        OFFSET 2.39345 -41.5694 -6.22357
        CHANNELS 6 Xposition Yposition Zposition Zrotation Xrotation Yrotation
        JOINT r_toes
        {
          OFFSET -0.801613 -10.1701 12.8571
          CHANNELS 6 Xposition Yposition Zposition Zrotation Xrotation Yrotation
          End Site
          {
            OFFSET 0 0 0.1
          }
        }
      }
    }
  }
}
MOTION
Frames: 5
Frame Time: 0.02
0 95.9893 0 -0 0 -0 0 5.22546 -1.18466 -0 0 -0 0 5.77894 1.10239 -0 0 -0 -1.0557e-17 6.16289 0.118334 -0 0 -0 -1.13649e-17 6.69386 -0.456341 -0 0 -0 -2.02997e-17 7.82529 -1.54945 -0 0 -0 -2.60628e-17 9.77186 -0.940923 -0 0 -0 -2.98794e-17 10.8563 1.62248 -0 0 -0 -1.32927e-17 4.92478 0.736013 -0 0 -0 -1.86396e-17 4.96043 0.433981 -0 0 -0 -2.06766e-17 4.97002 0.787173 -0 0 -0 1.26863 -7.82717 7.75148 -0 0 -0 13.3291 3.34342 -3.36319 -0 0 -0 30.0522 0.0615366 0.141 -0 0 -0 24.9344 0.0510561 0.116988 -0 0 -0 -1.26863 -7.82715 7.75138 -0 0 -0 -13.3291 3.34342 -3.36319 -0 0 -0 -30.0522 0.0615366 0.141 -0 0 -0 -24.9344 0.0510559 0.116988 -0 0 -0 9.50369 -4.32711 2.09145 -0 0 -0 -0.876987 -39.8926 -0.674123 -0 0 -0 -2.39345 -41.5694 -6.22357 -0 0 -0 0.801613 -10.1701 12.8571 -0 0 -0 -9.50369 -4.32711 2.09145 -0 0 -0 0.876987 -39.8926 -0.674123 -0 0 -0 2.39345 -41.5694 -6.22357 -0 0 -0 -0.801613 -10.1701 12.8571 -0 0 -0 
-5.29051 95.3078 -41.9532 1.6533 1.03681 -13.627 0 5.22546 -1.18466 -1.13467 0.486001 -0.288701 0 5.77894 1.10239 -0.801763 0.656297 -0.432346 -1.0557e-17 6.16289 0.118334 -0.388392 0.917583 -0.400563 -1.13649e-17 6.69386 -0.456341 0.0363982 1.22601 -0.399426 -2.02997e-17 7.82529 -1.54945 0.396373 1.2645 -0.43483 -2.60628e-17 9.77186 -0.940923 0.648958 1.22487 -0.741687 -2.98794e-17 10.8563 1.62248 0.00721668 0.1307 -0.0173583 -1.32927e-17 4.92478 0.736013 2.41783 -9.64402 3.74373 -1.86396e-17 4.96043 0.433981 1.27067 -5.05809 1.16505 -2.06766e-17 4.97002 0.787173 -0.283615 -3.43182 -0.903206 1.26863 -7.82717 7.75148 -3.28641 3.02495 -3.7703 13.3291 3.34342 -3.36319 -82.1103 10.7475 -4.7247 30.0522 0.0615366 0.141 1.16584 -0.0511011 -5.6276 24.9344 0.0510561 0.116988 -0.510341 -16.4548 -4.86828 -1.26863 -7.82715 7.75138 5.38257 5.59311 3.23673 -13.3291 3.34342 -3.36319 79.7685 12.4838 8.21925 -30.0522 0.0615366 0.141 -0.893158 -0.0289879 4.30836 -24.9344 0.0510559 0.116988 -0.747039 -31.5074 1.22402 9.50369 -4.32711 2.09145 6.21549 2.35167 -14.9441 -0.876987 -39.8926 -0.674123 1.13073 -4.20069 0.114846 -2.39345 -41.5694 -6.22357 -4.63975 -0.137003 15.8224 0.801613 -10.1701 12.8571 -7.45443e-16 -8.32411e-16 4.96962e-17 -9.50369 -4.32711 2.09145 -9.14921 -7.41695 34.4541 0.876987 -39.8926 -0.674123 0.0687009 0.256394 0.00432213 2.39345 -41.5694 -6.22357 6.08383 -0.322534 -15.8006 -0.801613 -10.1701 12.8571 -1.98785e-16 -5.8393e-16 -1.27595e-14 
-5.24741 95.3161 -41.9166 1.64348 1.04144 -13.5264 0 5.22546 -1.18466 -1.11633 0.440557 -0.299702 0 5.77894 1.10239 -0.777187 0.626733 -0.440936 -1.0557e-17 6.16289 0.118334 -0.359418 0.90081 -0.407117 -1.13649e-17 6.69386 -0.456341 0.0703011 1.23093 -0.404065 -2.02997e-17 7.82529 -1.54945 0.432049 1.28093 -0.444199 -2.60628e-17 9.77186 -0.940923 0.683287 1.24596 -0.76066 -2.98794e-17 10.8563 1.62248 0.00796356 0.130272 -0.017278 -1.32927e-17 4.92478 0.736013 2.56621 -9.75839 4.00026 -1.86396e-17 4.96043 0.433981 1.4706 -5.19368 1.28458 -2.06766e-17 4.97002 0.787173 -0.015502 -3.64895 -0.891916 1.26863 -7.82717 7.75148 -3.37162 3.01465 -3.73348 13.3291 3.34342 -3.36319 -82.094 11.0006 -4.75251 30.0522 0.0615366 0.141 1.17379 -0.0518448 -5.66605 24.9344 0.0510561 0.116988 -0.596578 -16.6888 -4.87727 -1.26863 -7.82715 7.75138 5.3596 5.58328 3.20759 -13.3291 3.34342 -3.36319 79.6878 12.2929 8.26429 -30.0522 0.0615366 0.141 -0.873305 -0.0276117 4.21243 -24.9344 0.0510559 0.116988 -0.931085 -31.4151 1.0903 9.50369 -4.32711 2.09145 6.2031 2.33519 -15.0503 -0.876987 -39.8926 -0.674123 1.12666 -4.18568 0.114287 -2.39345 -41.5694 -6.22357 -4.64677 -0.143573 15.8212 0.801613 -10.1701 12.8571 -3.47873e-16 -8.07563e-16 2.48481e-17 -9.50369 -4.32711 2.09145 -9.19902 -7.34312 34.3581 0.876987 -39.8926 -0.674123 0.051933 0.193809 0.0032956 2.39345 -41.5694 -6.22357 6.11006 -0.274335 -15.8065 -0.801613 -10.1701 12.8571 -5.96354e-16 -5.59082e-16 -1.27471e-14 
-5.20724 95.3285 -41.8793 1.6425 1.03444 -13.436 0 5.22546 -1.18466 -1.10193 0.409064 -0.314024 0 5.77894 1.10239 -0.75624 0.606568 -0.453974 -1.0557e-17 6.16289 0.118334 -0.334113 0.887429 -0.418425 -1.13649e-17 6.69386 -0.456341 0.100584 1.22933 -0.414 -2.02997e-17 7.82529 -1.54945 0.463213 1.28588 -0.458322 -2.60628e-17 9.77186 -0.940923 0.71208 1.25338 -0.782676 -2.98794e-17 10.8563 1.62248 0.00867048 0.130056 -0.0172609 -1.32927e-17 4.92478 0.736013 2.70893 -9.85327 4.26311 -1.86396e-17 4.96043 0.433981 1.62635 -5.28949 1.40533 -2.06766e-17 4.97002 0.787173 0.201036 -3.80988 -0.865955 1.26863 -7.82717 7.75148 -3.46451 3.01629 -3.70172 13.3291 3.34342 -3.36319 -82.0628 11.2443 -4.75322 30.0522 0.0615366 0.141 1.18227 -0.0526451 -5.70712 24.9344 0.0510561 0.116988 -0.671307 -16.932 -4.89898 -1.26863 -7.82715 7.75138 5.34767 5.57947 3.18294 -13.3291 3.34342 -3.36319 79.6063 12.0014 8.28515 -30.0522 0.0615366 0.141 -0.854165 -0.0263164 4.11996 -24.9344 0.0510559 0.116988 -1.11587 -31.3014 0.977427 9.50369 -4.32711 2.09145 6.18057 2.32617 -15.1673 -0.876987 -39.8926 -0.674123 1.12161 -4.16702 0.113593 -2.39345 -41.5694 -6.22357 -4.65275 -0.125081 15.8215 0.801613 -10.1701 12.8571 4.96962e-17 -7.95139e-16 1.2424e-17 -9.50369 -4.32711 2.09145 -9.25223 -7.28049 34.2997 0.876987 -39.8926 -0.674123 0.0439605 0.164054 0.00280112 2.39345 -41.5694 -6.22357 6.13923 -0.225968 -15.8137 -0.801613 -10.1701 12.8571 -5.96354e-16 -5.59082e-16 -1.27471e-14 
-5.16888 95.3307 -41.8423 1.63151 1.01781 -13.344 0 5.22546 -1.18466 -1.0862 0.406086 -0.333332 0 5.77894 1.10239 -0.73425 0.604779 -0.472383 -1.0557e-17 6.16289 0.118334 -0.308202 0.88089 -0.435053 -1.13649e-17 6.69386 -0.456341 0.131116 1.21536 -0.429471 -2.02997e-17 7.82529 -1.54945 0.493247 1.26916 -0.477887 -2.60628e-17 9.77186 -0.940923 0.737607 1.2334 -0.809043 -2.98794e-17 10.8563 1.62248 0.00939137 0.130099 -0.0172415 -1.32927e-17 4.92478 0.736013 2.84829 -9.90351 4.53457 -1.86396e-17 4.96043 0.433981 1.74811 -5.33538 1.52832 -2.06766e-17 4.97002 0.787173 0.358105 -3.93875 -0.857101 1.26863 -7.82717 7.75148 -3.5364 3.02542 -3.6667 13.3291 3.34342 -3.36319 -82.0728 11.4593 -4.7111 30.0522 0.0615366 0.141 1.19132 -0.0535054 -5.75092 24.9344 0.0510561 0.116988 -0.722115 -17.1492 -4.92647 -1.26863 -7.82715 7.75138 5.34053 5.58622 3.16207 -13.3291 3.34342 -3.36319 79.5291 11.6107 8.26582 -30.0522 0.0615366 0.141 -0.834183 -0.0249973 4.02343 -24.9344 0.0510559 0.116988 -1.30842 -31.21 0.886192 9.50369 -4.32711 2.09145 6.16793 2.32833 -15.2975 -0.876987 -39.8926 -0.674123 1.11409 -4.13926 0.112563 -2.39345 -41.5694 -6.22357 -4.64299 -0.153162 15.8205 0.801613 -10.1701 12.8571 4.47266e-16 -7.82715e-16 3.05504e-33 -9.50369 -4.32711 2.09145 -9.30037 -7.19776 34.2405 0.876987 -39.8926 -0.674123 0.0342322 0.127747 0.00219216 2.39345 -41.5694 -6.22357 6.15184 -0.210694 -15.8167 -0.801613 -10.1701 12.8571 -1.98785e-16 -5.8393e-16 -1.27595e-14 
